HIERARCHY
ROOT Hips
{
	OFFSET 0.000000 0.000000 0.000000 
	CHANNELS 6 Xposition Yposition Zposition Zrotation Yrotation Xrotation
	JOINT LeftUpLeg
	{
		OFFSET 1.363060 -1.794630 0.839290 
		CHANNELS 3 Zrotation Yrotation Xrotation
		JOINT LeftLeg
		{
			OFFSET 2.448110 -6.726130 0.000000 
			CHANNELS 3 Zrotation Yrotation Xrotation
			JOINT LeftFoot
			{
				OFFSET 2.562200 -7.039590 0.000000 
				CHANNELS 3 Zrotation Yrotation Xrotation
				JOINT LeftToeBase
				{
					OFFSET 0.157640 -0.433110 2.322550 
					CHANNELS 3 Zrotation Yrotation Xrotation
					End Site
					{
						OFFSET 0.000000 0.000000 0.000000 
					}
				}
			}
		}
	}
	JOINT RightUpLeg
	{
		OFFSET -1.305520 -1.794630 0.839290 
		CHANNELS 3 Zrotation Yrotation Xrotation
		JOINT RightLeg
		{
			OFFSET -2.542530 -6.985550 0.000000 
			CHANNELS 3 Zrotation Yrotation Xrotation
			JOINT RightFoot
			{
				OFFSET -2.568260 -7.056230 0.000000 
				CHANNELS 3 Zrotation Yrotation Xrotation
				JOINT RightToeBase
				{
					OFFSET -0.164730 -0.452590 2.363150 
					CHANNELS 3 Zrotation Yrotation Xrotation
					End Site
					{
						OFFSET 0.000000 0.000000 0.000000 
					}
				}
			}
		}
	}
	JOINT Spine
	{
		OFFSET 0.028270 2.035590 -0.193380 
		CHANNELS 3 Zrotation Yrotation Xrotation
		JOINT Spine1
		{
			OFFSET 0.056720 2.048850 -0.042750 
			CHANNELS 3 Zrotation Yrotation Xrotation
			JOINT Neck1
			{
				OFFSET -0.054170 1.746240 0.172020 
				CHANNELS 3 Zrotation Yrotation Xrotation
				JOINT Head
				{
					OFFSET 0.104070 1.761360 -0.123970 
					CHANNELS 3 Zrotation Yrotation Xrotation
					End Site
					{
						OFFSET 0.000000 0.000000 0.000000 
					}
				}
			}
			JOINT LeftArm
			{
				OFFSET 3.362410 1.200890 -0.311210 
				CHANNELS 3 Zrotation Yrotation Xrotation
				JOINT LeftForeArm
				{
					OFFSET 4.983000 -0.000000 -0.000000 
					CHANNELS 3 Zrotation Yrotation Xrotation
					JOINT LeftHand
					{
						OFFSET 3.483560 -0.000000 -0.000000 
						CHANNELS 3 Zrotation Yrotation Xrotation
						JOINT LeftHandIndex1
						{
							OFFSET 0.715260 -0.000000 -0.000000 
							CHANNELS 3 Zrotation Yrotation Xrotation
							End Site
							{
								OFFSET 0.000000 0.000000 0.000000 
							}
						}
					}
				}
			}
			JOINT RightArm
			{
				OFFSET -3.136600 1.374050 -0.404650 
				CHANNELS 3 Zrotation Yrotation Xrotation
				JOINT RightForeArm
				{
					OFFSET -5.241900 -0.000000 -0.000000 
					CHANNELS 3 Zrotation Yrotation Xrotation
					JOINT RightHand
					{
						OFFSET -3.444170 -0.000000 -0.000000 
						CHANNELS 3 Zrotation Yrotation Xrotation
						JOINT RightHandIndex1
						{
							OFFSET -0.622530 -0.000000 -0.000000 
							CHANNELS 3 Zrotation Yrotation Xrotation
							End Site
							{
								OFFSET 0.000000 0.000000 0.000000 
							}
						}
					}
				}
			}
		}
	}
}
MOTION
Frames: 13
Frame Time: 0.041667
-32.787956 17.745026 -2.214874 37.611650 85.166851 47.218218 -9.501658 -3.658458 -24.674134 1.551143 11.017688 31.653092 3.902798 -4.941525 10.555729 4.338200 12.597300 37.879200 7.359235 2.881396 -10.622984 -9.968570 -18.751760 60.473756 -1.954221 3.437809 21.318261 -0.246100 -3.192000 8.813800 -0.825857 1.182936 -3.751109 2.662608 1.037027 2.044707 6.652479 -0.288564 4.323113 -0.734200 -0.031100 3.057100 -75.262370 -2.699914 -16.170536 -0.872943 -3.956052 -0.427732 -2.944063 -2.662970 23.464370 -7.125000 0.000000 0.000000 74.478159 8.745323 -126.795874 0.852032 -3.819728 -1.089418 -4.874874 3.632977 152.573015 7.125000 0.000000 0.000000 
-32.558039 17.765426 -2.228060 37.691329 85.160222 46.867792 -9.675533 -3.688703 -23.452151 1.491199 10.986986 31.393418 3.705842 -4.336292 9.905196 3.310700 11.181700 32.895200 7.327320 3.120682 -11.549928 -10.264436 -18.882768 61.286145 -1.754339 3.090860 19.430429 -0.389200 -4.005900 11.093200 -0.672280 1.091229 -3.725818 3.367456 0.967009 1.864047 6.427571 -0.206715 4.168565 -0.857200 -0.018600 2.963200 -76.151062 -3.636121 -16.217227 -0.372393 -4.702629 -0.483999 -3.012881 -2.406758 24.376726 -7.125000 0.000000 0.000000 73.799759 7.688221 -126.681636 0.575670 -3.487366 -1.041441 -4.931208 3.585588 151.851231 7.125000 0.000000 0.000000 
-32.333981 17.776809 -2.242149 37.620957 85.356714 46.337652 -9.774005 -3.664116 -22.283490 1.475154 10.998362 31.295630 3.558229 -3.886442 9.072501 2.249200 9.366900 26.950000 7.410924 3.209901 -12.548144 -10.491348 -18.988694 61.947560 -1.652174 3.106780 17.879748 -0.318100 -3.625300 10.024700 -0.794780 1.024766 -3.658479 2.592403 0.893849 1.849564 6.557011 -0.121985 4.018652 -0.821300 0.027700 2.896200 -75.607322 -4.521102 -16.257365 0.164045 -5.479089 -0.546913 -3.016485 -2.241599 25.211331 -7.125000 0.000000 0.000000 74.365010 7.103017 -126.596322 0.069159 -2.837252 -1.004022 -5.001519 3.538195 151.411504 7.125000 0.000000 0.000000 
-32.114996 17.783910 -2.260632 38.364550 85.735725 46.637802 -9.764005 -4.076179 -20.965784 1.441023 10.991408 31.122531 3.232759 -3.006532 8.227062 1.193400 6.931800 19.513600 7.539304 2.973342 -13.692179 -10.700181 -19.082362 62.570597 -1.585587 3.361821 15.783701 -0.225900 -3.059600 8.444700 -0.817541 0.766871 -3.600643 2.127546 0.727191 1.814116 6.532983 0.044580 4.038741 -0.842800 0.114900 2.890900 -75.472632 -5.564191 -16.495018 0.749692 -6.292192 -0.633023 -2.903021 -2.202982 26.125872 -7.125000 0.000000 0.000000 74.473037 6.410013 -126.304703 -0.363489 -2.299255 -0.973601 -5.052967 3.519311 151.077545 7.125000 0.000000 0.000000 
-31.894320 17.789883 -2.272128 39.135068 86.045204 47.057166 -9.778835 -4.292864 -19.799811 1.391294 10.965337 30.896387 3.011823 -2.403334 7.464419 0.564800 4.813300 13.376800 7.674064 2.797809 -14.942138 -10.863631 -19.141289 63.044084 -1.553147 3.677281 13.431852 -0.132300 -2.344400 6.458600 -0.786279 0.478291 -3.533116 1.976507 0.539723 1.917251 6.474711 0.077577 4.183473 -0.909200 0.141500 2.970000 -75.630436 -6.814245 -10.788601 1.289354 -7.498958 -0.765893 -2.673134 -2.514316 21.111023 -7.125000 0.000000 0.000000 74.375195 5.757558 -125.932167 -0.726805 -1.840814 -0.946830 -5.092000 3.502669 150.785345 7.125000 0.000000 0.000000 
-31.671277 17.792024 -2.279679 42.507733 86.026526 50.197487 -10.166178 -4.334244 -18.848837 1.345394 10.961893 30.715757 2.682802 -1.580497 6.534659 0.121700 2.249200 6.194900 7.381729 2.777003 -16.297082 -10.956114 -19.141070 63.279679 -1.594735 4.123864 11.524273 -0.156700 -2.550900 7.030700 -0.629213 0.208273 -3.543235 2.791671 0.379414 1.758718 6.300545 0.126549 4.339523 -1.010200 0.161900 3.092200 -76.524313 -7.802495 -5.390530 1.915135 -8.780625 -0.925652 -2.484989 -2.748596 16.266980 -7.125000 0.000000 0.000000 73.446609 5.049836 -125.608310 -1.192851 -1.259564 -0.918294 -5.095092 3.500153 150.591285 7.125000 0.000000 0.000000 
-31.457702 17.785487 -2.296247 50.808150 85.781900 57.991015 -11.060193 -4.804460 -17.514039 1.286250 11.008760 30.558751 1.823286 0.408429 4.903926 0.123600 -2.266700 -6.243400 6.557976 2.442746 -17.396246 -10.976426 -19.112559 63.271298 -1.676519 4.571797 9.892939 -0.234200 -3.114600 8.598000 -0.544680 -0.122906 -3.530705 3.506643 0.201885 1.495617 6.274182 0.255657 4.307719 -0.986500 0.212800 3.088800 -77.235011 -8.666174 0.202525 2.653290 -10.195678 -1.134477 -2.324679 -3.018338 11.116341 -7.125000 0.000000 0.000000 72.360603 4.878378 -125.275710 -2.058176 -0.185203 -0.929905 -5.079784 3.601521 150.330547 7.125000 0.000000 0.000000 
-31.234659 17.782332 -2.302446 52.351370 86.389685 59.092197 -10.812051 -5.454271 -16.089807 1.234602 11.012076 30.385785 1.514701 1.134940 4.407908 0.150000 -2.495700 -6.877600 7.028454 2.261506 -18.367407 -10.885187 -19.058929 62.935048 -1.591114 4.159812 8.101109 -0.224600 -3.050400 8.419200 -0.535438 -0.510623 -3.447000 3.062414 -0.021684 1.569523 6.499392 0.442460 4.166659 -0.833300 0.306400 2.977200 -76.944085 -9.594506 5.131069 3.484160 -11.608037 -1.364153 -2.158217 -3.250060 6.513143 -7.125000 0.000000 0.000000 72.566939 3.833963 -124.805009 -2.006505 -0.260625 -0.888902 -5.042047 3.576671 150.114738 7.125000 0.000000 0.000000 
-31.007108 17.782783 -2.322169 58.151896 87.020171 64.815475 -10.681728 -6.346648 -15.008054 1.192580 11.023413 30.268476 1.291875 1.636748 4.006784 0.144800 -2.452300 -6.757500 7.237112 1.852223 -19.753951 -10.730011 -18.923208 62.379498 -1.541072 3.855652 6.609911 -0.214400 -2.981300 8.226700 -0.534602 -0.926471 -3.429410 2.582068 -0.233132 1.608504 6.540695 0.519679 4.070684 -0.823900 0.343500 2.897100 -76.705367 -10.418550 9.282753 4.393866 -13.029719 -1.615356 -1.968713 -3.413656 2.923042 -7.125000 0.000000 0.000000 72.658302 2.681901 -124.526574 -1.941556 -0.364464 -0.844943 -5.036783 3.505014 149.875818 7.125000 0.000000 0.000000 
-30.779670 17.781430 -2.334228 57.572119 87.285532 64.373453 -10.620211 -6.606828 -14.355379 1.186270 11.047408 30.266883 1.064605 2.143627 3.442246 0.157400 -2.556100 -7.045200 7.314489 2.047968 -21.259506 -10.499250 -18.754511 61.619448 -1.564635 3.844937 5.628645 -0.278100 -3.391900 9.371900 -0.541629 -1.017455 -3.436991 2.262015 -0.288236 1.617750 6.411017 0.579107 3.660852 -0.912800 0.341200 2.659800 -76.479183 -11.285563 12.944082 5.331753 -14.422339 -1.892023 -1.791871 -3.536059 -0.027966 -7.125000 0.000000 0.000000 72.648230 1.846476 -124.438696 -2.078300 -0.198829 -0.819784 -5.055969 3.432849 149.572060 7.125000 0.000000 0.000000 
-30.556177 17.755733 -2.344710 60.725160 86.982339 67.643360 -11.148784 -6.712113 -13.825115 1.182707 11.113177 30.337114 0.880208 2.524801 2.735289 0.159000 -2.568900 -7.080800 6.800946 2.044374 -22.781443 -10.256744 -18.538232 60.775880 -1.644550 4.021950 4.761940 -0.205700 -2.920100 8.056400 -0.360748 -1.264715 -3.463703 3.245507 -0.430126 1.703465 6.191687 0.571738 4.045453 -1.012100 0.345000 2.894200 -77.282586 -12.346861 15.436905 6.218288 -15.677586 -2.174214 -1.665944 -3.562583 -2.186489 -7.125000 0.000000 0.000000 71.546113 1.127222 -124.053626 -2.242523 -0.007855 -0.797463 -5.081061 3.409121 149.286299 7.125000 0.000000 0.000000 
-30.330204 17.719555 -2.348767 66.812517 86.390638 73.747206 -12.059976 -6.769711 -13.227715 1.168986 11.182605 30.387254 0.780264 2.705010 1.977499 0.189800 -2.806000 -7.739000 5.943394 1.889282 -24.092332 -9.978331 -18.297647 59.789591 -1.714860 4.101515 3.929327 -0.117500 -2.209600 6.085300 -0.413196 -1.462682 -3.432306 3.393351 -0.545691 1.929908 6.190467 0.600354 4.016016 -1.047500 0.357200 2.871500 -77.130476 -13.380279 17.977410 7.126957 -16.926140 -2.487420 -1.561289 -3.635469 -4.310214 -7.125000 0.000000 0.000000 71.350429 0.450905 -123.798001 -2.346141 0.130096 -0.774519 -5.089373 3.366425 148.938437 7.125000 0.000000 0.000000 
-30.138267 17.711440 -2.335693 80.897382 86.855288 87.959707 -11.685379 -6.854298 -12.914905 1.138334 11.232417 30.310172 1.173001 1.872965 1.783310 0.153700 -2.525800 -6.961300 6.323289 1.258035 -25.553004 -9.597414 -17.935830 58.494163 -1.635172 3.608111 3.214133 -0.048400 -1.419600 3.904000 -0.357106 -2.025091 -3.463116 3.275917 -0.781180 1.760839 6.306538 0.676256 3.911791 -1.018900 0.395200 2.853600 -76.803337 -14.499120 20.139162 8.019438 -18.063025 -2.808069 -1.492689 -3.685800 -5.972066 -7.125000 0.000000 0.000000 71.346905 -0.223894 -123.630531 -2.390887 0.189542 -0.755396 -5.108763 3.296035 148.461770 7.125000 0.000000 0.000000 
